<?xml version="1.0" encoding="utf-8"?>
<!-- Generator: Adobe Illustrator 21.0.0, SVG Export Plug-In . SVG Version: 6.00 Build 0)  -->
<svg version="1.1" id="Layer_1" xmlns="http://www.w3.org/2000/svg" xmlns:xlink="http://www.w3.org/1999/xlink" x="0px" y="0px"
	 viewBox="0 0 150 150" style="enable-background:new 0 0 150 150;" xml:space="preserve">
<g>
	<path d="M102.6,36.9C90,19.9,77.3,6.2,77.1,6.1C76.5,5.4,75.6,5,74.6,5c-1,0-1.9,0.4-2.5,1.1C72,6.2,59.3,19.9,46.7,36.9
		C29.5,60,20.8,78,20.8,90.3c0,29.7,24.1,53.8,53.8,53.8c29.7,0,53.8-24.1,53.8-53.8C128.4,78,119.7,60,102.6,36.9z M80,126.6
		c-2.8,0.7-5.7,1-8.6,1c-20.7,0-37.5-16.8-37.5-37.5c0-2.9,0.9-8,5.1-16.4c0.4-0.8,1.4-1.3,2.3-1c0.9,0.3,1.5,1.2,1.4,2.1
		c-0.1,0.8-0.1,1.6-0.1,2.3c0,22.2,15.8,41.5,37.5,45.8c0.9,0.2,1.5,1,1.6,1.9C81.5,125.6,80.9,126.4,80,126.6z"/>
</g>
</svg>
